<?xml version="1.0" encoding="UTF-8"?>
<!DOCTYPE svg PUBLIC "-//W3C//DTD SVG 1.1//EN" "http://www.w3.org/Graphics/SVG/1.1/DTD/svg11.dtd">
<svg xmlns="http://www.w3.org/2000/svg" version="1.1" width="800px" height="600px" style="shape-rendering:geometricPrecision; text-rendering:geometricPrecision; image-rendering:optimizeQuality; fill-rule:evenodd; clip-rule:evenodd" xmlns:xlink="http://www.w3.org/1999/xlink">
<g><path style="opacity:0.935" fill="#323232" d="M 387.5,181.5 C 437.33,179.162 475.497,198.828 502,240.5C 526.037,288.103 522.037,333.103 490,375.5C 456.311,412.219 415.145,424.719 366.5,413C 317.65,396.476 289.483,362.642 282,311.5C 279.194,261.606 298.694,223.44 340.5,197C 355.331,188.889 370.998,183.722 387.5,181.5 Z M 390.5,193.5 C 440.888,192.76 476.721,215.093 498,260.5C 513.869,308.869 502.702,349.702 464.5,383C 427.386,409.195 388.386,412.195 347.5,392C 307.092,366.679 289.592,330.179 295,282.5C 304.04,238.793 329.873,210.293 372.5,197C 378.657,195.922 384.657,194.755 390.5,193.5 Z"/></g>
<g><path style="opacity:0.974" fill="#323232" d="M 415.5,211.5 C 423.5,211.5 431.5,211.5 439.5,211.5C 439.667,253.501 439.5,295.501 439,337.5C 432.641,375.78 410.141,392.28 371.5,387C 367.728,386.594 364.061,385.761 360.5,384.5C 359.578,379.507 359.745,374.507 361,369.5C 361.94,366.558 363.94,365.225 367,365.5C 376.878,368.253 386.711,368.087 396.5,365C 408.659,358.203 414.826,347.703 415,333.5C 415.5,292.835 415.667,252.168 415.5,211.5 Z"/></g>
</svg>
